<svg id="Capa_1" data-name="Capa 1" xmlns="http://www.w3.org/2000/svg" viewBox="0 0 288.89 288.89"><defs><style>.cls-1{fill:#fff}</style></defs><g id="Instagrm"><path class="cls-1" d="M144.44 118.05c-14.58 0-26.4 11.82-26.4 26.4s11.82 26.4 26.4 26.4 26.4-11.82 26.4-26.4-11.82-26.4-26.4-26.4Z"/><path class="cls-1" d="M206.18 97.73c-1.44-3.7-3.15-6.33-5.92-9.11-2.77-2.77-5.41-4.49-9.11-5.92-2.79-1.08-6.99-2.38-14.71-2.73-8.35-.38-10.85-.46-32-.46s-23.65.08-32 .46c-7.72.35-11.91 1.64-14.71 2.73-3.7 1.44-6.33 3.15-9.11 5.92-2.77 2.77-4.49 5.41-5.92 9.11-1.08 2.79-2.37 6.98-2.73 14.71-.38 8.35-.46 10.86-.46 32s.08 23.65.46 32c.35 7.72 1.65 11.92 2.73 14.71 1.44 3.7 3.15 6.34 5.92 9.11 2.77 2.77 5.41 4.49 9.11 5.92 2.79 1.09 6.99 2.38 14.71 2.73 8.35.38 10.85.46 32 .46s23.65-.08 32-.46c7.72-.35 11.92-1.64 14.71-2.73 3.7-1.44 6.34-3.15 9.11-5.92 2.77-2.77 4.49-5.41 5.92-9.11 1.08-2.79 2.37-6.98 2.73-14.71.38-8.35.46-10.85.46-32s-.08-23.65-.46-32c-.35-7.72-1.64-11.91-2.73-14.71Zm-61.74 87.38c-22.46 0-40.67-18.21-40.67-40.67s18.21-40.67 40.67-40.67 40.67 18.21 40.67 40.67-18.21 40.67-40.67 40.67Zm42.28-73.44c-5.25 0-9.51-4.26-9.51-9.5s4.26-9.5 9.51-9.5 9.5 4.26 9.5 9.5-4.26 9.5-9.5 9.5Z"/><path class="cls-1" d="M144.44 0C64.67 0 0 64.67 0 144.44s64.67 144.44 144.44 144.44 144.44-64.67 144.44-144.44S224.22 0 144.44 0Zm78.72 177.1c-.38 8.43-1.72 14.19-3.68 19.22-2.02 5.21-4.73 9.63-9.13 14.03-4.4 4.4-8.82 7.11-14.03 9.14-5.04 1.96-10.79 3.3-19.22 3.68-8.45.38-11.14.48-32.65.48s-24.21-.09-32.65-.48c-8.43-.38-14.19-1.72-19.22-3.68-5.21-2.02-9.63-4.73-14.03-9.14-4.4-4.4-7.11-8.82-9.13-14.03-1.96-5.04-3.3-10.79-3.68-19.22-.39-8.45-.48-11.14-.48-32.65s.09-24.21.48-32.65c.38-8.43 1.72-14.19 3.68-19.22 2.02-5.21 4.73-9.63 9.13-14.03 4.4-4.4 8.82-7.11 14.03-9.14 5.04-1.96 10.79-3.3 19.22-3.68 8.45-.38 11.14-.48 32.65-.48s24.21.09 32.65.48c8.43.38 14.19 1.72 19.22 3.68 5.21 2.02 9.63 4.73 14.03 9.14 4.4 4.4 7.11 8.82 9.13 14.03 1.96 5.04 3.3 10.79 3.68 19.22.38 8.45.48 11.14.48 32.65s-.09 24.21-.48 32.65Z"/></g></svg>