<svg id="Capa_1" data-name="Capa 1" xmlns="http://www.w3.org/2000/svg" viewBox="0 0 288.89 288.89"><defs><style>.cls-1{fill:#fff}</style></defs><g id="Behance"><path class="cls-1" d="M200.35 137.12c-3.12-2.68-6.99-4.03-11.6-4.03-5.02 0-8.9 1.43-11.67 4.27-2.76 2.85-4.5 6.71-5.21 11.58h33.69c-.35-5.19-2.09-9.13-5.21-11.82ZM118.47 129.97c2.74-1.67 4.11-4.63 4.11-8.89 0-4.71-1.81-7.82-5.44-9.33-3.13-1.06-7.11-1.58-11.95-1.58h-22v22.3h24.58c4.39 0 7.96-.83 10.7-2.5ZM118.19 150.93c-2.4-1.1-5.76-1.67-10.11-1.71H83.19v26.96h24.56c4.38 0 7.8-.59 10.24-1.78 4.43-2.2 6.65-6.41 6.65-12.63 0-5.26-2.15-8.87-6.44-10.84Z"/><path class="cls-1" d="M144.44 0C64.67 0 0 64.67 0 144.44s64.67 144.44 144.44 144.44 144.44-64.67 144.44-144.44S224.22 0 144.44 0Zm21.04 98.42h43.95v10.21h-43.95V98.42Zm-24.02 80.92c-1.91 3.15-4.31 5.81-7.16 7.95-3.23 2.47-7.04 4.17-11.43 5.08-4.39.92-9.16 1.37-14.29 1.37H63V92.6h48.89c12.33.18 21.07 3.78 26.21 10.77 3.09 4.3 4.65 9.45 4.65 15.44s-1.57 11.15-4.68 14.89c-1.75 2.11-4.32 4.03-7.72 5.76 5.16 1.88 9.06 4.85 11.69 8.92 2.62 4.07 3.94 9.01 3.94 14.82s-1.5 11.37-4.5 16.13Zm84.38-17.51h-54.47c.3 7.51 2.91 12.77 7.82 15.79 2.98 1.88 6.57 2.82 10.78 2.82 4.45 0 8.07-1.14 10.86-3.44 1.52-1.23 2.87-2.95 4.03-5.14h19.97c-.53 4.43-2.94 8.94-7.26 13.52-6.69 7.28-16.07 10.91-28.14 10.91-9.95 0-18.73-3.07-26.34-9.2-7.61-6.14-11.41-16.12-11.41-29.95 0-12.96 3.43-22.89 10.3-29.8 6.87-6.91 15.79-10.37 26.74-10.37 6.51 0 12.38 1.17 17.59 3.5 5.22 2.33 9.54 6.03 12.93 11.07 3.06 4.44 5.05 9.6 5.96 15.46.52 3.44.74 8.39.64 14.84Z"/></g></svg>