<svg data-name="Capa 1" xmlns="http://www.w3.org/2000/svg" viewBox="0 0 288.89 288.89"><path d="M144.44 0C64.67 0 0 64.67 0 144.44s64.67 144.44 144.44 144.44 144.44-64.67 144.44-144.44S224.22 0 144.44 0Zm69.72 193.31c-2.92 8.29-17.47 16.24-23.99 16.79-6.53.61-6.53 5.3-42.76-8.77-36.16-14.21-59-51.05-60.77-53.36-1.36-1.77-9.11-12.03-12.71-24.47-1.09-3.88-1.83-7.95-1.83-12.03 0-17.4 9.18-25.97 12.44-29.5 3.26-3.53 7.14-4.42 9.52-4.42s4.76.34 6.8.34 5.1-1.22 8.02 5.85c2.99 7.07 10.13 24.47 11.01 26.24.88 1.77 1.49 3.81.27 6.19-.82 1.7-1.43 2.92-2.24 4.22-.41.54-.81 1.09-1.29 1.7-1.83 2.04-3.74 4.55-5.37 6.18-1.77 1.77-3.6 3.67-1.57 7.21 2.04 3.53 9.25 15.09 19.78 24.4 13.6 12.1 25.08 15.77 28.62 17.54 3.6 1.77 5.64 1.49 7.75-.88 2.04-2.31 8.91-10.27 11.28-13.8 2.38-3.53 4.76-2.99 8.02-1.77 3.26 1.15 20.73 9.72 24.34 11.49 3.53 1.77 5.91 2.65 6.79 4.08.89 1.49.89 8.57-2.11 16.79Z" style="fill:#fff"/></svg>